<svg width="512" height="512" viewBox="0 0 512 512" fill="none" xmlns="http://www.w3.org/2000/svg">
<rect width="512" height="512" rx="120" fill="url(#paint0_linear)"/>
<path d="M156 128H356C378.091 128 396 145.909 396 168V344C396 366.091 378.091 384 356 384H156C133.909 384 116 366.091 116 344V168C116 145.909 133.909 128 156 128Z" fill="white"/>
<path d="M156 128H186V384H156C133.909 384 116 366.091 116 344V168C116 145.909 133.909 128 156 128Z" fill="#E0E0E0"/>
<circle cx="256" cy="236" r="40" fill="#FFD93D"/>
<path d="M236 226C236 226 241 221 246 226" stroke="#4A4A4A" stroke-width="4" stroke-linecap="round"/>
<path d="M266 226C266 226 271 221 276 226" stroke="#4A4A4A" stroke-width="4" stroke-linecap="round"/>
<path d="M246 256C246 256 256 266 266 256" stroke="#4A4A4A" stroke-width="4" stroke-linecap="round"/>
<defs>
<linearGradient id="paint0_linear" x1="0" y1="0" x2="512" y2="512" gradientUnits="userSpaceOnUse">
<stop stop-color="#6C63FF"/>
<stop offset="1" stop-color="#A29BFE"/>
</linearGradient>
</defs>
</svg>
